# xmcd CD database file
# Copyright (C) 1995-1998 Ti Kan
#
# Track frame offsets:
#	150
#	15799
#	32654
#	65190
#	87317
#	101050
#	120736
#	153408
#	169643
#	187725
#	206183
#
# Disc length: 2834 seconds
#
# Revision: 1
# Processed by: cddbd v1.4PL0 Copyright (c) Steve Scherf et al.
# Submitted via: CDex 1.30Release
#
DISCID=890b100b
DTITLE=Fred and The Healers - First
DYEAR=1999
DGENRE=Blues
TTITLE0=No matter what they say
TTITLE1=Sharing my shoes
TTITLE2=Love is a lie
TTITLE3=Hyde your sadness
TTITLE4=No smoking
TTITLE5=How you do this
TTITLE6=Ain't nobody's business
TTITLE7=The show
TTITLE8=Messin' with the kid
TTITLE9=Time out
TTITLE10=Fast swing
EXTD=YEAR: 1999 ID3G:   0
EXTT0=
EXTT1=
EXTT2=
EXTT3=
EXTT4=
EXTT5=
EXTT6=
EXTT7=
EXTT8=
EXTT9=
EXTT10=
PLAYORDER=
